<svg width="117" height="102" viewBox="0 0 117 102" fill="none" xmlns="http://www.w3.org/2000/svg">
<path d="M74.7093 16.9689C69.0932 13.9121 62.7632 12.4398 56.3868 12.707C50.8389 12.6019 45.3269 13.6241 40.1797 15.7128C35.4096 17.6909 31.9309 20.3337 29.5479 23.7917C28.74 25.0275 28.1935 26.418 27.9425 27.8763C27.6391 29.5159 28.2406 30.7027 29.5937 31.1325C31.1615 31.6299 32.1373 30.606 32.9591 29.4259L33.2519 29.0043C34.1642 27.6833 35.1077 26.3177 36.3068 25.4013C38.1562 24 40.1814 22.8514 42.3295 21.9853C46.9287 20.1305 52.0324 19.4928 58.391 19.9807C62.7946 20.3186 66.5217 21.2968 69.785 22.9709C74.4489 25.3633 77.4395 28.4333 78.9284 32.3562C81.0365 37.9145 79.9622 42.4064 75.7348 45.7076C73.3217 47.5037 70.7957 49.1402 68.1728 50.607L68.0501 50.6791C66.7831 51.4244 65.4342 52.093 64.1296 52.7397C63.2132 53.1942 62.2646 53.6649 61.3463 54.1602C55.0373 57.5633 50.7242 62.0104 48.1606 67.7548C47.5062 69.155 47.0475 70.6394 46.7974 72.1664C46.6201 73.3339 46.6841 74.5255 46.9853 75.6669C47.2864 76.8078 47.8182 77.8741 48.5474 78.7986C49.2733 79.7436 50.0116 79.9399 50.5033 79.9374L50.5177 79.9372C50.8632 79.9192 51.1998 79.8205 51.5005 79.6478C51.8012 79.4756 52.0577 79.2347 52.2495 78.9444C52.623 78.4503 53.0031 77.9598 53.3845 77.4698C54.3893 76.1718 55.4278 74.8298 56.3382 73.4247C59.183 69.0292 63.0796 65.422 68.6006 62.0722C72.015 60.0635 75.325 57.8796 78.5177 55.5291C80.7573 53.8397 82.7634 51.8569 84.4827 49.633C88.0852 44.9131 89.2324 39.5597 87.8921 33.721C86.2309 26.5005 81.7958 20.8654 74.7093 16.9689Z" fill="black"/>
<path d="M49.2722 100.689C49.667 100.744 50.0652 100.769 50.4636 100.764C52.3928 100.718 54.2579 100.058 55.7922 98.8779C57.3264 97.6983 58.4511 96.0593 59.0052 94.196C59.3364 92.7819 59.3406 91.3103 59.0175 89.894C58.6944 88.4783 58.0526 87.1559 57.1418 86.03C56.4487 85.1022 55.5424 84.3587 54.5008 83.8635C53.4593 83.3678 52.3137 83.1353 51.1632 83.1855C49.6337 83.2085 49.3844 83.3183 46.8866 84.8302C45.1502 85.8296 43.8025 87.395 43.0648 89.2683C42.3271 91.1421 42.2431 93.2132 42.8267 95.1417C43.8023 98.3671 45.9715 100.233 49.2722 100.689ZM50.1725 88.3186C50.3129 88.5028 50.453 88.6759 50.5887 88.8467C50.9973 89.2973 51.334 89.8092 51.5867 90.3643C51.8783 91.142 51.9476 91.9864 51.7867 92.8019C51.6429 93.2008 51.3539 93.5295 50.9781 93.7211C50.4798 94.0541 49.8796 94.1968 49.2861 94.1229C48.9806 94.0442 48.0511 93.8037 48.0928 91.9724C48.1376 90.0143 48.7458 88.9301 50.1729 88.3154L50.1725 88.3186Z" fill="black"/>
<path d="M110.025 2.86809C107.25 1.22172 104.085 0.360999 100.865 0.376673C98.069 0.220025 95.2704 0.632539 92.6357 1.58966C90.1933 2.49806 88.3897 3.76577 87.1235 5.46505C86.6929 6.07312 86.3914 6.7641 86.2376 7.49482C86.0539 8.31598 86.3351 8.92566 87.0094 9.16767C87.7907 9.44781 88.3019 8.9497 88.7384 8.36996L88.8939 8.16281C89.3786 7.5137 89.8799 6.84272 90.5017 6.403C91.4605 5.73088 92.5032 5.18951 93.6026 4.7929C95.9566 3.94347 98.5422 3.71723 101.74 4.08205C103.954 4.3347 105.815 4.8976 107.429 5.80278C109.737 7.09633 111.187 8.70031 111.865 10.7064C112.824 13.5487 112.198 15.7938 110.005 17.3795C108.755 18.2402 107.45 19.0182 106.1 19.7089L106.037 19.743C105.384 20.0951 104.691 20.4071 104.021 20.7089C103.551 20.9209 103.064 21.1405 102.591 21.3732C99.3463 22.9714 97.0882 25.1334 95.6881 27.9823C95.332 28.6762 95.0729 29.4161 94.9183 30.1815C94.807 30.7669 94.8171 31.369 94.9476 31.9502C95.0782 32.5312 95.3264 33.0788 95.6769 33.5586C96.0253 34.0487 96.3939 34.1615 96.6419 34.1694L96.6492 34.1696C96.8238 34.167 96.9953 34.1235 97.1502 34.0421C97.305 33.9609 97.4389 33.8442 97.541 33.7013C97.7386 33.4591 97.9394 33.2189 98.1409 32.9789C98.6719 32.3432 99.2206 31.6858 99.706 30.9943C101.223 28.8308 103.255 27.0846 106.102 25.4985C107.861 24.5494 109.571 23.5099 111.225 22.3843C112.386 21.5742 113.434 20.6118 114.343 19.5224C116.248 17.2096 116.926 14.5314 116.36 11.5621C115.657 7.88991 113.526 4.9654 110.025 2.86809Z" fill="black" fill-opacity="0.3"/>
<path d="M95.6335 44.6092C95.8316 44.644 96.0319 44.6641 96.2329 44.6689C97.2066 44.6819 98.1595 44.3838 98.9552 43.8176C99.7509 43.2514 100.349 42.4459 100.663 41.5167C100.856 40.8097 100.886 40.0677 100.75 39.3475C100.613 38.6275 100.314 37.9487 99.8758 37.3639C99.5436 36.8831 99.1005 36.4912 98.5845 36.222C98.0685 35.9526 97.4952 35.814 96.9141 35.8178C96.1424 35.8008 96.0146 35.8515 94.7267 36.5673C93.8324 37.0388 93.1236 37.8031 92.7166 38.7339C92.3096 39.6651 92.2285 40.7079 92.4868 41.6913C92.9186 43.336 93.9776 44.3177 95.6335 44.6092ZM96.3186 38.3878C96.3859 38.4833 96.4534 38.5732 96.5186 38.6619C96.7162 38.8968 96.8765 39.1612 96.9935 39.4458C97.126 39.8434 97.1452 40.2705 97.0488 40.6788C96.9689 40.8773 96.817 41.0376 96.6239 41.1272C96.3664 41.2858 96.0611 41.3466 95.7632 41.2982C95.6106 41.2528 95.1463 41.1142 95.2016 40.1915C95.2608 39.2049 95.5877 38.6695 96.3188 38.3862L96.3186 38.3878Z" fill="black" fill-opacity="0.3"/>
<path d="M24.7659 41.8681C21.9909 40.2217 18.8263 39.361 15.6059 39.3767C12.8102 39.22 10.0115 39.6325 7.37686 40.5897C4.93446 41.4981 3.13085 42.7658 1.8646 44.4651C1.43409 45.0731 1.13254 45.7641 0.978731 46.4948C0.795079 47.316 1.07624 47.9257 1.75056 48.1677C2.53185 48.4478 3.04306 47.9497 3.47951 47.37L3.63505 47.1628C4.11979 46.5137 4.62106 45.8427 5.24287 45.403C6.20165 44.7309 7.24437 44.1895 8.3438 43.7929C10.6977 42.9435 13.2833 42.7172 16.4807 43.082C18.695 43.3347 20.5562 43.8976 22.1706 44.8028C24.4777 46.0963 25.9285 47.7003 26.606 49.7064C27.5653 52.5487 26.9396 54.7938 24.7462 56.3795C23.4957 57.2402 22.1914 58.0182 20.8413 58.7089L20.7781 58.743C20.1252 59.0951 19.4325 59.4071 18.7626 59.7089C18.2919 59.9209 17.8048 60.1405 17.3324 60.3732C14.0874 61.9714 11.8293 64.1334 10.4293 66.9823C10.0731 67.6762 9.81406 68.4161 9.65941 69.1815C9.5482 69.7669 9.55822 70.369 9.68878 70.9502C9.81933 71.5312 10.0676 72.0788 10.418 72.5586C10.7664 73.0487 11.1351 73.1615 11.3831 73.1694L11.3903 73.1696C11.5649 73.167 11.7365 73.1235 11.8913 73.0421C12.0462 72.9609 12.18 72.8442 12.2822 72.7013C12.4798 72.4591 12.6806 72.2189 12.8821 71.9789C13.413 71.3432 13.9618 70.6858 14.4471 69.9943C15.9638 67.8308 17.9961 66.0846 20.8428 64.4985C22.6022 63.5494 24.3121 62.5099 25.966 61.3843C27.1269 60.5742 28.1756 59.6118 29.0842 58.5224C30.989 56.2096 31.6675 53.5314 31.1007 50.5621C30.3979 46.8899 28.2667 43.9654 24.7659 41.8681Z" fill="black" fill-opacity="0.3"/>
<path d="M10.3747 83.6092C10.5727 83.644 10.773 83.6641 10.974 83.6689C11.9477 83.6819 12.9006 83.3838 13.6963 82.8176C14.4921 82.2514 15.0898 81.4459 15.4041 80.5167C15.5975 79.8097 15.6271 79.0677 15.4907 78.3475C15.3542 77.6275 15.0552 76.9487 14.617 76.3639C14.2848 75.8831 13.8416 75.4912 13.3256 75.222C12.8097 74.9526 12.2363 74.814 11.6552 74.8178C10.8835 74.8008 10.7557 74.8515 9.46788 75.5673C8.5736 76.0388 7.86473 76.8031 7.45774 77.7339C7.05074 78.6651 6.96969 79.7079 7.22798 80.6913C7.65971 82.336 8.71872 83.3177 10.3747 83.6092ZM11.0597 77.3878C11.1271 77.4833 11.1945 77.5732 11.2597 77.6619C11.4574 77.8968 11.6176 78.1612 11.7347 78.4458C11.8672 78.8434 11.8864 79.2705 11.79 79.6788C11.7101 79.8773 11.5581 80.0376 11.365 80.1272C11.1076 80.2858 10.8022 80.3466 10.5043 80.2982C10.3517 80.2528 9.88748 80.1142 9.94273 79.1915C10.0019 78.2049 10.3289 77.6695 11.06 77.3862L11.0597 77.3878Z" fill="black" fill-opacity="0.3"/>
</svg>
